<?xml version="1.0" encoding="UTF-8" standalone="no"?>
<svg width="8px" height="8px" viewBox="0 0 8 8" version="1.1" xmlns="http://www.w3.org/2000/svg" xmlns:xlink="http://www.w3.org/1999/xlink" xmlns:sketch="http://www.bohemiancoding.com/sketch/ns">
    <!-- Generator: Sketch 3.2.2 (9983) - http://www.bohemiancoding.com/sketch -->
    <title>calendar-check</title>
    <desc>Created with Sketch.</desc>
    <defs></defs>
    <g id="Quote" stroke="none" stroke-width="1" fill="none" fill-rule="evenodd" sketch:type="MSPage">
        <g id="quote-adjust-date" sketch:type="MSArtboardGroup" transform="translate(-236.000000, -744.000000)" fill="#FFFFFE">
            <g id="Group" sketch:type="MSLayerGroup" transform="translate(165.000000, 383.000000)">
                <g id="Rectangle-169-+-Fill-46" transform="translate(67.000000, 357.000000)" sketch:type="MSShapeGroup">
                    <path d="M6.20439517,11.6843856 L4.16188521,8.98808955 C3.89557026,8.63719388 3.9652922,8.13771047 4.31618787,7.87139552 C4.66708353,7.60622355 5.16656694,7.67594549 5.43173891,8.02569817 L6.7747435,9.79960721 L10.1534001,4.37501166 C10.3865686,4.00239932 10.8769082,3.88810106 11.2518065,4.12012653 C11.6244188,4.35215201 11.7387171,4.84363454 11.5066916,5.21738985 L7.51539624,11.6249505 C7.37709534,11.8478321 7.13706899,11.987276 6.87532597,11.9998488 C6.86275316,11.9998488 6.85132334,12.0009918 6.83875053,12.0009918 C6.5907233,12.0009918 6.35526887,11.8844075 6.20439517,11.6843856 Z" id="calendar-check"></path>
                </g>
            </g>
        </g>
    </g>
</svg>